PathFileType	4	(X/Y/Z)	 s09c0303.trc
DataRate	CameraRate	NumFrames	NumMarkers	Units	OrigDataRate	OrigDataStartFrame	OrigNumFrames
200	200	5	50	mm	200	1251	2000
Frame#	Time	racr			lacr			c7			jug			rlel			rdr			llel			ldr			s2			lic			ric			lasi			rasi			rpsi			lpsi			rgt			lgt			rth1			rth2			rth3			rth4			rlfc			rmfc			rsh1			rsh2			rsh3			rsh4			rlmal			rmmal			rcal			rtoe			rmt5			lth1			lth2			lth4			lth3			llfc			lmfc			llmal			lmmal			lcal			lmt5			lsh1			lsh2			lsh3			lsh4			ltoe			SBIKE			LBIKE			RBIKE			
		X1	Y1	Z1	X2	Y2	Z2	X3	Y3	Z3	X4	Y4	Z4	X5	Y5	Z5	X6	Y6	Z6	X7	Y7	Z7	X8	Y8	Z8	X9	Y9	Z9	X10	Y10	Z10	X11	Y11	Z11	X12	Y12	Z12	X13	Y13	Z13	X14	Y14	Z14	X15	Y15	Z15	X16	Y16	Z16	X17	Y17	Z17	X18	Y18	Z18	X19	Y19	Z19	X20	Y20	Z20	X21	Y21	Z21	X22	Y22	Z22	X23	Y23	Z23	X24	Y24	Z24	X25	Y25	Z25	X26	Y26	Z26	X27	Y27	Z27	X28	Y28	Z28	X29	Y29	Z29	X30	Y30	Z30	X31	Y31	Z31	X32	Y32	Z32	X33	Y33	Z33	X34	Y34	Z34	X35	Y35	Z35	X36	Y36	Z36	X37	Y37	Z37	X38	Y38	Z38	X39	Y39	Z39	X40	Y40	Z40	X41	Y41	Z41	X42	Y42	Z42	X43	Y43	Z43	X44	Y44	Z44	X45	Y45	Z45	X46	Y46	Z46	X47	Y47	Z47	X48	Y48	Z48	X49	Y49	Z49	X50	Y50	Z50	
1251	6.2550	779.830009	1217.411952	-71.219980	769.880303	1223.015766	-439.270293	786.409150	1285.705954	-251.243369	777.567224	1155.194678	-259.094192	605.091854	1061.992066	44.923690	718.445330	875.173867	-42.591033	573.004552	1051.853844	-548.972401	713.917380	883.329494	-442.202326	294.184426	1180.889730	-262.463401	437.774683	1148.720162	-401.524408	415.125759	1125.791792	-104.400644	457.351287	1083.457762	-382.630407	442.589521	1063.573728	-126.481067	325.222630	1196.166443	-197.099441	336.772951	1212.591926	-301.156628	337.899632	994.218302	-78.583427	391.336950	1044.526355	-452.017425	367.094963	863.112801	-79.846161	404.480960	783.619429	-84.293094	392.160991	696.285756	-95.441127	436.839883	788.133084	-103.204598	403.113136	606.250912	-119.419422	382.787211	582.875181	-214.846565	348.603893	520.320547	-83.339320	349.943278	430.594648	-91.043414	306.883856	354.754372	-87.686034	376.834342	425.812738	-119.554469	272.873284	257.346063	-82.915666	284.223299	263.097875	-156.801614	198.602384	256.724562	-119.493831	428.867797	123.626245	-127.694293	347.713513	146.910721	-61.774019	482.641139	937.842541	-446.354243	554.231418	895.854950	-425.026846	576.459665	918.193770	-402.923713	599.092583	817.445356	-419.876282	626.255419	725.267554	-395.074869	620.300395	711.098663	-294.581260	282.209539	604.303926	-419.210735	295.046640	602.425853	-344.003829	204.824013	639.659452	-378.627146	267.001430	477.452532	-432.392078	536.608317	690.829355	-419.499964	462.836635	644.938594	-412.051896	374.044527	640.707647	-417.537765	470.798353	622.622733	-380.669595	345.166510	421.530045	-357.242624	-64.129137	851.471831	-238.051961	20.988417	85.246592	-442.099854	21.145912	84.062623	-43.640034	
1252	6.2600	783.674287	1216.483409	-76.286303	766.459412	1222.242894	-444.208864	787.293355	1284.735333	-256.573595	777.086605	1153.994765	-264.341761	609.170005	1063.790003	44.045683	719.531925	875.180542	-43.085591	568.947375	1048.702933	-548.993637	713.180393	883.012401	-442.583523	293.752315	1179.872392	-256.879318	435.263055	1149.919776	-400.312252	418.553458	1122.192188	-103.172070	456.172397	1084.539992	-382.991205	444.621201	1060.598044	-127.176674	326.329629	1194.657742	-192.194198	335.710088	1212.000208	-295.490163	340.969112	991.562627	-76.755996	387.814544	1045.543284	-449.956752	366.461269	861.497621	-78.713177	402.155119	781.426997	-83.859547	387.400841	694.280800	-94.254133	433.689000	784.968295	-103.840960	396.088373	604.262512	-118.968482	374.338269	580.732903	-214.570011	341.013791	518.615408	-82.782008	342.053367	429.079276	-90.220567	298.741639	353.303303	-87.039407	368.815113	424.131325	-119.129547	264.394479	256.027603	-82.400553	275.815813	261.781593	-156.255209	190.212267	256.542325	-119.064713	418.219889	119.891178	-127.768146	337.531880	144.484690	-61.707896	484.271486	940.737569	-442.739297	554.738501	899.928011	-424.749684	577.270725	923.526432	-402.849250	602.176794	823.371872	-419.979539	632.720728	731.978356	-395.083993	627.012895	718.090596	-292.495301	290.045415	606.638599	-418.774932	302.910703	605.424895	-343.847602	211.363755	640.736324	-378.622899	277.704973	480.041236	-432.611695	543.385199	697.013201	-419.242150	470.192615	650.125421	-411.955392	381.447157	644.749536	-417.116954	478.390487	627.807609	-380.628994	356.698861	425.826862	-357.331472	-64.144354	851.433723	-237.982306	20.976110	85.215161	-442.103681	21.130210	84.065161	-43.661710	
1253	6.2650	787.434020	1215.727316	-81.523967	763.108462	1221.343478	-449.240624	787.723227	1283.867907	-262.053514	777.056519	1152.752213	-269.242603	613.046360	1065.620520	42.651937	720.220546	874.981985	-43.891337	565.353734	1045.577800	-549.261755	712.429074	882.848229	-443.172408	293.532850	1178.988008	-251.467758	432.808333	1151.235372	-399.160918	422.181074	1118.877766	-102.192078	454.096793	1085.773759	-382.250680	446.842166	1057.727984	-127.895114	327.555047	1193.273111	-187.571312	334.223700	1212.594271	-294.281722	343.934666	989.258473	-75.014350	384.434735	1046.315624	-447.888465	366.146992	860.591158	-77.379460	399.973942	779.815167	-82.892934	383.033840	692.870422	-92.663200	430.615856	782.443181	-104.395762	389.301834	602.726763	-118.117004	364.850367	580.275277	-213.895782	333.729998	517.685760	-81.915186	334.336903	428.000878	-89.405681	290.677426	352.378903	-86.254916	361.007820	423.010471	-118.383830	255.886052	255.537467	-81.816210	267.082900	261.234042	-155.571975	181.778137	257.084279	-118.498471	407.545973	116.951893	-127.834963	327.356685	142.569005	-61.612781	483.900882	943.694941	-441.268516	556.869778	904.534725	-423.137969	578.344242	929.114281	-402.270266	604.789428	829.205144	-419.927610	638.887776	738.161631	-395.557439	633.602322	723.838577	-295.114654	297.744925	608.240340	-418.283048	309.577368	606.930064	-343.339188	217.812205	640.911864	-378.553857	288.504299	481.953844	-432.820918	549.676530	703.025422	-419.077692	477.254196	654.993891	-411.875792	388.601594	648.205601	-416.714857	485.913815	632.563676	-380.925946	368.358563	429.503977	-357.074086	-64.178355	851.420349	-238.009990	20.973856	85.204740	-442.095572	21.123113	84.062584	-43.674408	
1254	6.2700	791.048282	1215.112921	-86.911629	759.857925	1220.248292	-454.225325	788.134402	1282.972785	-267.687616	777.005516	1151.487053	-273.999709	616.812323	1067.454451	40.842077	720.846473	874.906430	-44.712561	562.047853	1042.342017	-550.195167	711.754917	882.559791	-443.796518	293.437715	1178.323156	-246.396038	430.424174	1152.650393	-398.068356	425.970767	1116.157687	-101.403173	452.341815	1087.058136	-382.111972	448.995922	1055.276043	-128.861467	331.159599	1191.715081	-184.159116	332.358137	1212.783810	-291.464371	346.970903	987.651412	-72.820399	380.744681	1047.258529	-446.141422	366.130953	860.263264	-76.071020	398.084604	778.519104	-82.088267	379.126967	692.155357	-90.815794	427.938480	780.574794	-104.743908	383.002857	601.597881	-117.074417	358.181884	579.305603	-212.867446	326.961450	517.084047	-80.831906	326.861550	427.472195	-88.478857	282.668308	352.167436	-85.284121	353.547741	422.249295	-117.354271	247.251826	255.822024	-80.854007	258.558364	261.224951	-154.814609	173.407867	258.290928	-117.596722	396.696645	114.826662	-128.101263	317.121131	141.467375	-61.532189	483.371828	946.626124	-439.883939	557.313482	909.337883	-423.111195	577.353439	934.032064	-403.247458	606.842653	834.548673	-420.226199	644.737645	745.765139	-395.100268	639.634290	731.278436	-294.370325	305.347940	609.152121	-417.821166	317.404728	608.064787	-342.800231	224.090848	640.212185	-378.431306	299.378436	483.292697	-432.996566	555.376189	708.657318	-419.228358	483.879570	659.591003	-411.962733	395.401495	651.120045	-416.382299	493.107916	636.812220	-381.134096	379.965890	432.759760	-357.310640	-64.212831	851.412125	-238.039734	20.973881	85.205745	-442.088791	21.131338	84.099858	-43.677486	
1255	6.2750	794.359372	1214.693873	-92.152062	756.743757	1218.990695	-459.273213	789.016629	1281.983764	-273.249442	776.340997	1150.375300	-278.368683	620.436974	1069.413358	38.690586	721.539660	874.991250	-45.234583	558.400982	1039.290306	-550.356447	711.057616	882.321358	-444.364683	293.987344	1178.317026	-241.709427	428.127393	1154.148086	-397.035120	429.658757	1113.985115	-100.704578	450.826254	1088.406219	-382.427860	451.086638	1053.475955	-129.508689	331.725243	1191.509080	-179.898434	331.351660	1212.982658	-287.186448	349.939245	986.737087	-70.600369	377.070068	1048.084566	-444.609714	366.373359	860.460178	-74.722234	396.956505	777.640786	-81.212749	375.689450	691.950741	-88.727485	425.672644	779.576347	-103.871929	377.337091	600.870743	-115.784818	351.622852	578.435761	-211.586963	320.781870	516.992750	-79.560545	319.765776	427.442224	-87.667184	274.933345	352.533916	-84.116524	346.360133	421.940305	-116.292234	238.703062	256.449122	-79.688116	249.671616	261.951417	-153.669800	164.264889	260.889431	-115.593859	385.747723	113.473714	-128.748028	307.082657	140.969408	-61.533818	482.859872	949.456870	-438.577235	557.840930	913.796220	-422.676827	577.560175	939.000059	-403.639196	609.186845	840.466621	-419.054003	649.737097	752.644330	-395.455762	645.219972	737.667959	-294.621748	312.666637	609.422164	-417.320830	324.607093	608.875337	-342.352791	230.271009	638.780497	-378.370711	310.243207	483.883648	-433.323203	560.936964	713.979623	-418.710601	490.201921	663.543476	-411.912862	401.890014	653.431158	-415.982060	500.044841	640.747441	-381.417046	391.649099	435.428341	-357.390876	-64.253077	851.407369	-238.079453	20.977545	85.190512	-442.114147	21.136078	84.098760	-43.659642	
